HIERARCHY
ROOT Hips
{
  OFFSET 3.13124 94.3669 -3.18751
  CHANNELS  6 Xposition Yposition Zposition Zrotation Xrotation Yrotation
  JOINT LeftUpLeg
  {
    OFFSET 8.64259 1.95398 -2.38835
    CHANNELS 3 Zrotation Xrotation Yrotation
    JOINT LeftLeg
    {
      OFFSET 43.7702 0 0
      CHANNELS 3 Zrotation Xrotation Yrotation
      JOINT LeftFoot
      {
        OFFSET 40.6238 0 0
        CHANNELS 3 Zrotation Xrotation Yrotation
        JOINT LeftToeBase
        {
          OFFSET 12.7242 0 0
          CHANNELS 3 Zrotation Xrotation Yrotation
          End Site
          {
            OFFSET 0 0 0
          }
        }
      }
    }
  }
  JOINT RightUpLeg
  {
    OFFSET -8.2249 1.95398 -2.59336
    CHANNELS 3 Zrotation Xrotation Yrotation
    JOINT RightLeg
    {
      OFFSET 43.5653 0 0
      CHANNELS 3 Zrotation Xrotation Yrotation
      JOINT RightFoot
      {
        OFFSET 40.6238 0 0
        CHANNELS 3 Zrotation Xrotation Yrotation
        JOINT RightToeBase
        {
          OFFSET 12.7242 0 0
          CHANNELS 3 Zrotation Xrotation Yrotation
          End Site
          {
            OFFSET 0 0 0
          }
        }
      }
    }
  }
  JOINT Spine
  {
    OFFSET 0.165834 0.87714 6.61349
    CHANNELS 3 Zrotation Xrotation Yrotation
    JOINT Spine1
    {
      OFFSET 7.38962 1.71661e-005 0
      CHANNELS 3 Zrotation Xrotation Yrotation
      JOINT Spine2
      {
        OFFSET 11.9445 1.14441e-005 0
        CHANNELS 3 Zrotation Xrotation Yrotation
        JOINT Spine3
        {
          OFFSET 14.7254 4.19617e-005 0
          CHANNELS 3 Zrotation Xrotation Yrotation
          JOINT Spine4
          {
            OFFSET 10.9679 0 0
            CHANNELS 3 Zrotation Xrotation Yrotation
            JOINT RightShoulder
            {
              OFFSET 2.46616 -1.6653 3.69651
              CHANNELS 3 Zrotation Xrotation Yrotation
              JOINT RightArm
              {
                OFFSET 13.0012 0 0
                CHANNELS 3 Zrotation Xrotation Yrotation
                JOINT RightForeArm
                {
                  OFFSET 28.7848 1.52588e-005 0
                  CHANNELS 3 Zrotation Xrotation Yrotation
                  JOINT RightHand
                  {
                    OFFSET 26.5688 1.52588e-005 0
                    CHANNELS 3 Zrotation Xrotation Yrotation
                    End Site
                    {
                      OFFSET 0 0 0
                    }
                  }
                }
              }
            }
            JOINT LeftShoulder
            {
              OFFSET 2.38034 -1.29275 -3.75231
              CHANNELS 3 Zrotation Xrotation Yrotation
              JOINT LeftArm
              {
                OFFSET 16.3182 6.10352e-005 0
                CHANNELS 3 Zrotation Xrotation Yrotation
                JOINT LeftForeArm
                {
                  OFFSET 27.0901 0 0
                  CHANNELS 3 Zrotation Xrotation Yrotation
                  JOINT LeftHand
                  {
                    OFFSET 24.5451 1.52588e-005 0
                    CHANNELS 3 Zrotation Xrotation Yrotation
                    End Site
                    {
                      OFFSET 0 0 0
                    }
                  }
                }
              }
            }
            JOINT Neck
            {
              OFFSET 5.0226 -0.0266342 0
              CHANNELS 3 Zrotation Xrotation Yrotation
              JOINT Head
              {
                OFFSET 6.69363 2.86102e-005 0
                CHANNELS 3 Zrotation Xrotation Yrotation
                End Site
                {
                  OFFSET 0 0 0
                }
              }
            }
          }
        }
      }
    }
  }
}
MOTION
Frames:	6
Frame Time:	0.0333333
-56.8884 78.4012 -121.727 -94.8112 -5.91248 -92.1061 176.523 43.9722 103.483 -47.5785 -27.3396 -1.34758 31.3255 -13.3254 -14.9067 28.7808 5.49087e-006 4.15371e-006 178.294 15.8249 101.716 -60.566 36.316 1.9915 71.2592 -10.5303 -5.31183 28.7808 1.24156e-005 1.87698e-005 -0.761731 7.27385 -89.9516 12.3332 -1.8815 0.664282 0.663437 -1.85044 0.746467 -21.8826 -1.99415 0.0678898 -1.86996 -1.99413 0.0678863 95.8823 -43.8676 -92.5664 34.6291 9.0118 7.1131 52.5429 39.395 -69.322 -1.03491 -0.100559 6.65488 -96.1075 -66.5482 74.1539 -45.3639 26.5144 -3.48555 9.5159 0.510273 -80.7817 -58.3588 -6.54227 7.75748 6.27894 28.7292 9.63744 -31.1724 18.4744 33.9785 
-60.209 78.3321 -120.419 -95.5071 -7.50263 -90.5235 177.237 42.925 103.535 -42.2053 -29.2804 -1.61618 33.2326 -10.7777 -11.8499 28.7808 5.49087e-006 4.15371e-006 178.853 12.149 103.354 -59.1424 38.9575 2.30054 71.9223 -8.86335 -4.44723 28.7808 1.24156e-005 1.87698e-005 -0.583282 7.27967 -90.173 12.3134 -1.65102 0.0402118 0.643473 -1.64768 0.112854 -21.8996 -1.58679 -0.457983 -1.88699 -1.58676 -0.457982 95.2919 -42.8734 -93.7089 36.5514 7.19587 4.28093 40.1189 35.5205 -61.0231 0.085827 0.0522239 6.8277 -94.5118 -67.939 76.4442 -41.4265 22.8825 -3.93028 19.0767 1.16579 -84.9264 -67.6303 -5.07653 3.39635 4.44877 28.5176 12.2851 -30.236 18.6685 32.3737 
-63.8465 78.4094 -118.867 -95.9915 -10.131 -89.2348 177.795 42.2486 102.193 -40.2992 -36.2028 -2.31526 33.571 -7.2692 -8.29173 28.7808 5.49087e-006 4.15371e-006 179.723 8.19937 104.909 -56.92 41.9378 2.70758 72.0877 -6.901 -3.49753 28.7808 1.24156e-005 1.87698e-005 -0.412674 7.24007 -90.4913 12.3889 -1.44951 -0.471042 0.718738 -1.46884 -0.406783 -21.8208 -1.24095 -0.884952 -1.80812 -1.24093 -0.88495 95.0613 -42.4691 -94.1657 38.6987 5.02434 -0.773854 50.9121 43.823 -66.1333 -0.840316 -0.0545428 -10.7732 -92.3483 -68.4766 79.2148 -38.2621 19.0588 -3.93207 21.5753 0.429887 -87.8771 -69.6889 -5.2829 3.32913 3.55625 28.0909 13.9148 -30.3481 18.5075 30.5143 
-67.5607 78.449 -117.136 -95.651 -13.0866 -88.5203 177.892 43.8775 99.7311 -43.3068 -41.2878 -2.83905 33.4187 -1.22883 -2.34986 28.7808 5.49087e-006 4.15371e-006 179.909 6.66098 105.97 -57.81 44.8589 3.07248 69.2258 -7.35232 -3.87796 28.7808 1.24156e-005 1.87698e-005 -0.247073 7.03478 -90.6788 12.7981 -1.23465 -0.681063 1.12763 -1.26344 -0.626068 -21.4093 -0.972883 -1.02065 -1.39663 -0.972862 -1.02065 94.2258 -43.4892 -95.402 42.1107 2.94855 -21.0165 36.7943 74.1792 -43.9435 0.33093 -0.261361 -41.7259 -88.9505 -67.327 83.2329 -37.5458 15.8339 -1.60215 22.1808 0.549124 -87.688 -51.8206 0.14246 -4.78381 3.29203 27.7769 13.3253 -31.6576 18.2985 29.3353 
-71.4737 78.8513 -115.251 -95.2089 -16.0683 -88.5851 179.168 41.412 95.225 -41.5698 -42.3728 -3.02728 41.1753 4.25317 2.95048 28.7808 5.49087e-006 4.15371e-006 -179.708 4.64485 105.801 -57.9034 44.631 3.03106 66.6292 -5.01174 -2.76701 28.7808 1.24156e-005 1.87698e-005 -0.104047 6.7731 -90.5637 13.3206 -0.864345 -0.732856 1.64976 -0.895756 -0.694113 -20.885 -0.604142 -0.95873 -0.87238 -0.604147 -0.95874 93.9624 -44.3889 -95.6788 40.2153 2.42614 -18.7023 85.4985 67.1061 -91.6961 -11.6294 4.56379 -50.5976 -85.9147 -65.7866 86.8595 -35.1367 11.0927 -1.22812 24.0779 0.676644 -87.787 -44.0055 0.875678 -6.91269 2.84601 26.8798 11.8387 -33.1439 17.4276 28.8686 
-75.0686 79.3895 -113.408 -93.4835 -18.7619 -88.5867 179.809 40.3482 92.2488 -40.7665 -42.1555 -3.03457 46.3995 6.39435 4.51443 28.7808 5.49087e-006 4.15371e-006 179.786 5.50072 104.712 -60.6154 41.3157 2.53338 62.7237 -2.9336 -1.6878 28.7808 1.24156e-005 1.87698e-005 0.107554 6.39399 -90.2929 14.0808 -0.361518 -0.62673 2.40978 -0.388762 -0.610212 -20.1243 -0.156459 -0.706401 -0.111627 -0.156468 -0.706406 93.4279 -46.4469 -96.1778 37.6749 3.4082 -11.7279 121.132 45.9064 -119.136 -6.62768 2.20594 -46.2724 -82.3237 -63.5944 91.289 -32.0693 5.22062 -2.44319 25.0905 1.42041 -86.3481 -39.5922 2.26861 -11.3477 3.89414 26.3443 9.22785 -35.9771 16.5539 28.6255 
